<svg width="31" height="27" viewBox="0 0 31 27" fill="none" xmlns="http://www.w3.org/2000/svg">
<path d="M29.0625 11.5728L6.08375 11.5728L13.1169 3.16499C13.2797 2.96999 13.4024 2.74499 13.4778 2.50281C13.5533 2.26063 13.5801 2.00603 13.5567 1.75355C13.5095 1.24363 13.2607 0.773269 12.865 0.445945C12.4693 0.118621 11.9592 -0.0388545 11.4469 0.00815932C10.9346 0.0551731 10.462 0.302827 10.1331 0.696639L0.445624 12.267C0.380447 12.3591 0.322165 12.4557 0.271248 12.5563C0.271248 12.6527 0.174374 12.7106 0.135624 12.807C0.0478036 13.0281 0.00182272 13.2635 -7.27247e-07 13.5012C0.00182267 13.739 0.0478035 13.9743 0.135624 14.1954C0.135624 14.2918 0.232498 14.3497 0.271248 14.4461C0.322164 14.5467 0.380447 14.6433 0.445623 14.7354L10.1331 26.3058C10.3153 26.5235 10.5434 26.6985 10.8013 26.8185C11.0591 26.9385 11.3404 27.0005 11.625 27C12.0777 27.0009 12.5164 26.844 12.865 26.5565C13.0612 26.3946 13.2234 26.1958 13.3422 25.9714C13.4611 25.747 13.5343 25.5015 13.5577 25.249C13.5811 24.9964 13.5542 24.7417 13.4786 24.4995C13.4029 24.2573 13.28 24.0323 13.1169 23.8374L6.08375 15.4296L29.0625 15.4296C29.5764 15.4296 30.0692 15.2264 30.4325 14.8648C30.7959 14.5031 31 14.0126 31 13.5012C31 12.9898 30.7959 12.4993 30.4325 12.1376C30.0692 11.776 29.5764 11.5728 29.0625 11.5728Z" fill="white"/>
</svg>
