<svg width="24" height="24" viewBox="0 0 24 24" fill="none" xmlns="http://www.w3.org/2000/svg">
<path fill-rule="evenodd" clip-rule="evenodd" d="M12 15.237L20.0924 23.3296C20.9863 24.2235 22.4357 24.2235 23.3296 23.3296C24.2235 22.4357 24.2235 20.9865 23.3296 20.0926L15.237 12L23.3296 3.90745C24.2235 3.01358 24.2235 1.56431 23.3296 0.670429C22.4357 -0.223441 20.9863 -0.223441 20.0924 0.670429L12 8.76299L3.90743 0.670414C3.01355 -0.223471 1.56428 -0.223471 0.670412 0.670414C-0.223471 1.5643 -0.223471 3.01355 0.670412 3.90744L8.76295 12L0.670412 20.0926C-0.223471 20.9865 -0.223471 22.4357 0.670412 23.3296C1.56428 24.2235 3.01355 24.2235 3.90743 23.3296L12 15.237Z" fill="#686868"/>
</svg>
