<svg width="25" height="25" viewBox="0 0 25 25" fill="none" xmlns="http://www.w3.org/2000/svg">
<path d="M21.9454 10.0635H14.3928V2.51815C14.3928 1.32381 13.429 0.355469 12.2345 0.355469C11.04 0.355469 10.0768 1.32381 10.0768 2.51867V10.0687H2.52053C1.32603 10.0687 0.354946 11.037 0.35547 12.2319C0.354946 12.8288 0.596148 13.376 0.986989 13.7668C1.37835 14.1586 1.91831 14.4061 2.51477 14.4061H10.0768V21.9457C10.0768 22.5431 10.3138 23.084 10.7052 23.4743C11.0965 23.8656 11.6349 24.1078 12.2324 24.1078C13.4264 24.1078 14.3928 23.1395 14.3928 21.9457V14.4056H21.9454C23.1399 14.4056 24.1083 13.4289 24.1078 12.2345C24.1073 11.0407 23.1388 10.0635 21.9454 10.0635Z" fill="black"/>
</svg>
