<svg width="14" height="14" viewBox="0 0 14 14" fill="none" xmlns="http://www.w3.org/2000/svg">
<path d="M12.4915 3.67485L6.80408 9.36228C6.23771 9.92864 4.5565 10.191 4.18091 9.81537C3.80532 9.43978 4.06168 7.75858 4.62804 7.19222L10.3215 1.49881C10.4619 1.34563 10.6318 1.2225 10.8212 1.13683C11.0105 1.05116 11.2152 1.00472 11.423 1.00034C11.6307 0.99597 11.8372 1.03373 12.0299 1.11136C12.2227 1.18899 12.3977 1.30488 12.5444 1.45202C12.6911 1.59915 12.8066 1.77448 12.8836 1.96744C12.9607 2.1604 12.998 2.36698 12.993 2.57471C12.9881 2.78245 12.941 2.98705 12.8549 3.17612C12.7687 3.3652 12.6451 3.53486 12.4915 3.67485Z" stroke="black" stroke-linecap="round" stroke-linejoin="round"/>
<path d="M6.36553 2.24414H3.38468C2.75222 2.24414 2.14571 2.49538 1.69849 2.9426C1.25128 3.38981 1 3.99636 1 4.62882V10.5905C1 11.223 1.25128 11.8295 1.69849 12.2767C2.14571 12.724 2.75222 12.9752 3.38468 12.9752H9.94255C11.2601 12.9752 11.7311 11.9021 11.7311 10.5905V7.60967" stroke="black" stroke-linecap="round" stroke-linejoin="round"/>
</svg>
