<svg width="15" height="13" viewBox="0 0 15 13" fill="none" xmlns="http://www.w3.org/2000/svg">
<path d="M1.3692 1L13.6305 12M6.03142 5.225C5.67541 5.55498 5.45631 6.00451 5.45631 6.5C5.45631 7.51255 6.37126 8.33333 7.49985 8.33333C8.06013 8.33333 8.56775 8.13106 8.93688 7.8035M3.75335 3.22881C2.45957 3.99465 1.47412 5.14574 1 6.5C1.868 8.97934 4.44991 10.7778 7.49999 10.7778C8.8548 10.7778 10.1172 10.423 11.1781 9.81124M6.81867 2.2524C7.04278 2.23245 7.27009 2.22222 7.49999 2.22222C10.5501 2.22222 13.132 4.02067 14 6.5C13.8088 7.04633 13.5343 7.55954 13.1899 8.02778" stroke="black" stroke-linecap="round" stroke-linejoin="round"/>
</svg>
