<svg width="131" height="74" viewBox="0 0 131 74" fill="none" xmlns="http://www.w3.org/2000/svg">
<path fill-rule="evenodd" clip-rule="evenodd" d="M51.3711 0C49.7142 0 48.3711 1.34315 48.3711 3V70.514C48.3711 72.1708 49.7142 73.514 51.3711 73.514H85.7239C87.3807 73.514 88.7239 72.1708 88.7239 70.514V3C88.7239 1.34315 87.3807 0 85.7239 0H51.3711ZM57.1903 5.99114C55.5335 5.99114 54.1903 7.33429 54.1903 8.99114V13.379C54.1903 15.0358 55.5335 16.379 57.1903 16.379H79.6982C81.3551 16.379 82.6982 15.0358 82.6982 13.379V8.99114C82.6982 7.33429 81.3551 5.99114 79.6982 5.99114H57.1903ZM54.165 25.3722C54.165 23.7154 55.5081 22.3722 57.165 22.3722H62.5517C64.2085 22.3722 65.5517 23.7154 65.5517 25.3722V28.7651H71.5436V32.7604H65.5507V32.7601H57.165C55.5081 32.7601 54.165 31.4169 54.165 29.7601V25.3722ZM74.5455 22.3722C72.8887 22.3722 71.5455 23.7154 71.5455 25.3722V32.7601H79.7325C81.3893 32.7601 82.7325 31.4169 82.7325 29.7601V25.3722C82.7325 23.7154 81.3893 22.3722 79.7325 22.3722H74.5455ZM66.4234 57.2316L54.1913 44.946V73.5126H82.6992L66.4234 57.2316ZM57.6027 38.7521H64.845H67.6978H79.6978C81.3546 38.7521 82.6978 40.0953 82.6978 41.7521V53.7521V56.6527V63.9227L77.5708 58.7684L68.6889 49.8392L62.7236 43.8734C62.7232 43.873 62.7228 43.8726 62.7224 43.8722L57.6027 38.7521Z" fill="black"/>
<path d="M10.4858 38.7925L31.615 59.9165C32.768 61.0692 32.7677 62.9385 31.6144 64.0909C30.4619 65.2425 28.5942 65.2423 27.442 64.0903L2.14006 38.7937C0.961157 37.6151 0.969263 35.7013 2.15811 34.5327L27.7993 9.32773C28.8937 8.25195 30.6507 8.25948 31.7358 9.34462C32.8276 10.4363 32.8276 12.2064 31.7359 13.2981L10.4855 34.5496C9.31392 35.7213 9.31405 37.6209 10.4858 38.7925Z" fill="black"/>
<path d="M120.514 34.7681L99.385 13.6441C98.232 12.4914 98.2323 10.622 99.3856 9.46962C100.538 8.31802 102.406 8.31828 103.558 9.47021L128.86 34.7668C130.039 35.9455 130.031 37.8592 128.842 39.0278L103.201 64.2328C102.106 65.3086 100.349 65.3011 99.2642 64.2159C98.1724 63.1242 98.1724 61.3542 99.2641 60.2624L120.514 39.0109C121.686 37.8392 121.686 35.9396 120.514 34.7681Z" fill="black"/>
</svg>
