<svg width="22" height="23" viewBox="0 0 22 23" fill="none" xmlns="http://www.w3.org/2000/svg">
<path fill-rule="evenodd" clip-rule="evenodd" d="M10.607 7.29492C8.44878 7.29492 6.69922 9.04448 6.69922 11.2027C6.69922 13.3609 8.44878 15.1104 10.607 15.1104C12.7652 15.1104 14.5147 13.3609 14.5147 11.2027C14.5147 9.04448 12.7652 7.29492 10.607 7.29492ZM8.26232 11.2027C8.26232 9.9078 9.31209 8.85802 10.607 8.85802C11.9018 8.85802 12.9516 9.9078 12.9516 11.2027C12.9516 12.4975 11.9018 13.5473 10.607 13.5473C9.31209 13.5473 8.26232 12.4975 8.26232 11.2027Z" fill="black"/>
<path fill-rule="evenodd" clip-rule="evenodd" d="M10.58 4.42646e-07C10.1169 -9.978e-06 9.7302 -1.00272e-05 9.41279 0.0216441C9.08235 0.0441944 8.77025 0.0927963 8.46765 0.218136C7.76548 0.508987 7.2076 1.06686 6.91675 1.76903C6.76534 2.13459 6.72433 2.51984 6.70867 2.93858C6.69608 3.2752 6.52621 3.55606 6.2755 3.7008C6.0248 3.84554 5.69663 3.85223 5.39882 3.69483C5.02834 3.49901 4.6742 3.34189 4.2819 3.29025C3.52838 3.19104 2.76631 3.39525 2.16334 3.85792C1.90349 4.05731 1.70533 4.30331 1.5206 4.57821C1.34312 4.84228 1.14981 5.17714 0.91823 5.57825L0.891918 5.62383C0.660329 6.02493 0.467006 6.35976 0.327046 6.64549C0.181355 6.94294 0.0673841 7.23755 0.0246282 7.56228C-0.0745764 8.3158 0.129627 9.07787 0.592293 9.68089C0.833135 9.99465 1.14622 10.2229 1.50098 10.4458C1.78628 10.625 1.9446 10.9126 1.94458 11.2022C1.94457 11.4917 1.78625 11.7793 1.50098 11.9585C1.14618 12.1814 0.833062 12.4096 0.592199 12.7235C0.129522 13.3264 -0.0746702 14.0885 0.0245239 14.842C0.0672799 15.1667 0.18125 15.4614 0.326942 15.7588C0.466901 16.0446 0.660225 16.3794 0.891803 16.7805L0.918126 16.8261C1.1497 17.2272 1.34302 17.562 1.52049 17.8261C1.70523 18.101 1.90339 18.347 2.16324 18.5464C2.76621 19.009 3.52828 19.2133 4.2818 19.1141C4.67407 19.0624 5.0282 18.9053 5.39865 18.7095C5.6965 18.5521 6.02471 18.5588 6.27544 18.7036C6.52619 18.8483 6.69608 19.1292 6.70867 19.4659C6.72433 19.8846 6.76535 20.2698 6.91675 20.6354C7.2076 21.3375 7.76548 21.8955 8.46765 22.1863C8.77025 22.3117 9.08235 22.3602 9.41279 22.3827C9.7302 22.4044 10.1169 22.4044 10.58 22.4044H10.6326C11.0958 22.4044 11.4824 22.4044 11.8 22.3827C12.1304 22.3602 12.4425 22.3117 12.7451 22.1863C13.4472 21.8955 14.0052 21.3375 14.296 20.6354C14.4474 20.2698 14.4884 19.8846 14.504 19.4658C14.5166 19.1292 14.6865 18.8483 14.9372 18.7035C15.1879 18.5588 15.5162 18.5521 15.814 18.7094C16.1844 18.9052 16.5385 19.0624 16.9309 19.114C17.6844 19.2132 18.4464 19.009 19.0494 18.5464C19.3093 18.3469 19.5074 18.101 19.6921 17.8261C19.8696 17.562 20.0629 17.2272 20.2944 16.8261L20.3208 16.7805C20.5524 16.3794 20.7458 16.0445 20.8857 15.7587C21.0314 15.4613 21.1453 15.1667 21.1881 14.842C21.2873 14.0884 21.0831 13.3263 20.6204 12.7234C20.3796 12.4095 20.0664 12.1814 19.7117 11.9585C19.4264 11.7793 19.2681 11.4917 19.2681 11.2021C19.2681 10.9126 19.4264 10.6251 19.7116 10.4459C20.0665 10.223 20.3797 9.99486 20.6205 9.68089C21.0832 9.07794 21.2874 8.31588 21.1882 7.56235C21.1454 7.23762 21.0315 6.94301 20.8858 6.64556C20.7459 6.35986 20.5526 6.02504 20.3209 5.62397L20.2947 5.57836C20.063 5.17724 19.8697 4.84235 19.6922 4.57828C19.5075 4.30338 19.3094 4.05738 19.0495 3.85799C18.4466 3.39532 17.6845 3.19112 16.9309 3.29032C16.5386 3.34196 16.1845 3.49907 15.8141 3.69487C15.5163 3.8523 15.188 3.84559 14.9373 3.70083C14.6866 3.55608 14.5166 3.27518 14.504 2.93853C14.4884 2.5198 14.4474 2.13457 14.296 1.76903C14.0052 1.06686 13.4472 0.508987 12.7451 0.218136C12.4425 0.0927963 12.1304 0.0441944 11.8 0.0216441C11.4824 -1.00272e-05 11.0958 -9.978e-06 10.6326 4.42646e-07H10.58ZM9.06578 1.66225C9.14623 1.62895 9.26836 1.59824 9.51918 1.58112C9.77709 1.56353 10.1101 1.5631 10.6064 1.5631C11.1026 1.5631 11.4356 1.56353 11.6935 1.58112C11.9444 1.59824 12.0665 1.62895 12.1469 1.66225C12.466 1.79446 12.7197 2.04803 12.8518 2.36721C12.8936 2.46788 12.9281 2.62483 12.9421 2.99695C12.9729 3.82266 13.3991 4.61769 14.1557 5.05452C14.9123 5.49135 15.814 5.46292 16.5445 5.07682C16.8737 4.90281 17.0269 4.85427 17.1349 4.84005C17.4774 4.79496 17.8238 4.88777 18.0979 5.09807C18.167 5.15105 18.2546 5.24147 18.3949 5.45017C18.5391 5.6647 18.7059 5.9529 18.954 6.38265C19.2022 6.81241 19.3684 7.10103 19.4821 7.33315C19.5926 7.55895 19.6271 7.68009 19.6385 7.76638C19.6836 8.10888 19.5907 8.45528 19.3805 8.72936C19.3141 8.81582 19.1955 8.92423 18.8801 9.12234C18.1805 9.56199 17.7051 10.3285 17.705 11.2021C17.705 12.0758 18.1804 12.8424 18.8801 13.2821C19.1954 13.4802 19.314 13.5885 19.3803 13.675C19.5906 13.9491 19.6835 14.2955 19.6384 14.638C19.627 14.7243 19.5925 14.8454 19.4819 15.0712C19.3683 15.3032 19.2021 15.5919 18.9539 16.0216C18.7058 16.4514 18.539 16.7396 18.3948 16.9542C18.2545 17.1628 18.1669 17.2533 18.0978 17.3062C17.8237 17.5166 17.4773 17.6093 17.1348 17.5643C17.0268 17.55 16.8736 17.5015 16.5444 17.3276C15.8139 16.9414 14.9122 16.913 14.1555 17.3499C13.3991 17.7867 12.9729 18.5817 12.9421 19.4074C12.9281 19.7795 12.8936 19.9365 12.8518 20.0372C12.7197 20.3563 12.466 20.61 12.1469 20.7422C12.0665 20.7754 11.9444 20.8062 11.6935 20.8233C11.4356 20.8409 11.1026 20.8413 10.6064 20.8413C10.1101 20.8413 9.77709 20.8409 9.51918 20.8233C9.26836 20.8062 9.14623 20.7754 9.06578 20.7422C8.7467 20.61 8.49307 20.3563 8.36087 20.0372C8.31916 19.9365 8.2846 19.7795 8.27068 19.4074C8.2398 18.5818 7.8136 17.7867 7.05699 17.3499C6.30039 16.913 5.39878 16.9415 4.66825 17.3276C4.33903 17.5016 4.18582 17.5501 4.07778 17.5643C3.73527 17.6094 3.38887 17.5166 3.1148 17.3063C3.04575 17.2534 2.95808 17.1629 2.81783 16.9542C2.67366 16.7397 2.50677 16.4515 2.25866 16.0217C2.01053 15.592 1.84439 15.3033 1.73069 15.0713C1.62008 14.8455 1.58561 14.7243 1.57425 14.638C1.52916 14.2955 1.62198 13.9491 1.83229 13.675C1.89863 13.5886 2.01726 13.4802 2.33258 13.2821C3.0322 12.8425 3.50764 12.0759 3.50768 11.2023C3.50773 10.3285 3.03228 9.56188 2.33259 9.12224C2.01735 8.92413 1.89872 8.81573 1.83238 8.72928C1.62208 8.45521 1.52927 8.10882 1.57436 7.7663C1.58571 7.68003 1.62019 7.55888 1.73079 7.33308C1.84449 7.10095 2.01064 6.81233 2.25875 6.38257C2.50688 5.95283 2.67376 5.66462 2.81794 5.45009C2.95819 5.24141 3.04586 5.15098 3.11489 5.09801C3.38898 4.8877 3.73537 4.79488 4.07788 4.83998C4.18593 4.8542 4.33914 4.90274 4.6684 5.07677C5.39889 5.46287 6.30046 5.49129 7.05703 5.05448C7.81362 4.61768 8.2398 3.82268 8.27068 2.997C8.2846 2.62485 8.31916 2.46789 8.36087 2.36721C8.49307 2.04803 8.7467 1.79446 9.06578 1.66225Z" fill="black"/>
</svg>
