<svg width="17" height="16" viewBox="0 0 17 16" fill="none" xmlns="http://www.w3.org/2000/svg">
<path fill-rule="evenodd" clip-rule="evenodd" d="M16.6087 7.06044C17.1304 7.58044 17.1304 8.42044 16.6087 8.94133L14.0334 11.5111C13.685 11.8578 13.1133 11.8578 12.765 11.5111C12.6822 11.4289 12.6165 11.3312 12.5716 11.2237C12.5268 11.1161 12.5037 11.0009 12.5037 10.8844C12.5037 10.768 12.5268 10.6528 12.5716 10.5452C12.6165 10.4377 12.6822 10.34 12.765 10.2578C13.2209 9.8038 13.727 9.40272 14.2737 9.06222L14.6194 8.84711L14.4345 8.664C13.7782 8.81407 13.107 8.88981 12.4336 8.88978H5.35789C5.12098 8.88978 4.89377 8.79613 4.72625 8.62943C4.55872 8.46273 4.46461 8.23664 4.46461 8.00089C4.46461 7.76514 4.55872 7.53905 4.72625 7.37235C4.89377 7.20565 5.12098 7.112 5.35789 7.112H12.4336C13.107 7.11197 13.7782 7.18771 14.4345 7.33778L14.6194 7.15467L14.2746 6.94044C13.7275 6.59911 13.221 6.19713 12.765 5.74222C12.6822 5.65999 12.6165 5.56231 12.5716 5.45478C12.5268 5.34725 12.5037 5.23197 12.5037 5.11556C12.5037 4.99914 12.5268 4.88387 12.5716 4.77633C12.6165 4.6688 12.6822 4.57112 12.765 4.48889C13.1133 4.14222 13.685 4.14222 14.0334 4.48889L16.6087 7.06044ZM9.82607 11.5556C9.58916 11.5556 9.36195 11.6492 9.19443 11.8159C9.02691 11.9826 8.93279 12.2087 8.93279 12.4444V13.7778C8.93279 13.8957 8.88574 14.0087 8.80198 14.092C8.71822 14.1754 8.60461 14.2222 8.48615 14.2222H2.2332C2.11474 14.2222 2.00114 14.1754 1.91738 14.092C1.83362 14.0087 1.78656 13.8957 1.78656 13.7778V2.22222C1.78656 2.10435 1.83362 1.9913 1.91738 1.90795C2.00114 1.8246 2.11474 1.77778 2.2332 1.77778H8.48615C8.60461 1.77778 8.71822 1.8246 8.80198 1.90795C8.88574 1.9913 8.93279 2.10435 8.93279 2.22222V3.56C8.93279 3.79575 9.02691 4.02184 9.19443 4.18854C9.36195 4.35524 9.58916 4.44889 9.82607 4.44889C10.063 4.44889 10.2902 4.35524 10.4577 4.18854C10.6252 4.02184 10.7194 3.79575 10.7194 3.56V2.22222C10.7194 1.63285 10.4841 1.06762 10.0653 0.650874C9.64646 0.234126 9.07844 0 8.48615 0H2.2332C1.64092 0 1.07289 0.234126 0.654089 0.650874C0.235283 1.06762 0 1.63285 0 2.22222V13.7778C0 14.3671 0.235283 14.9324 0.654089 15.3491C1.07289 15.7659 1.64092 16 2.2332 16H8.48615C9.07844 16 9.64646 15.7659 10.0653 15.3491C10.4841 14.9324 10.7194 14.3671 10.7194 13.7778V12.4444C10.7194 12.2087 10.6252 11.9826 10.4577 11.8159C10.2902 11.6492 10.063 11.5556 9.82607 11.5556Z" fill="black"/>
</svg>
